<svg width="800" height="800" viewBox="0 0 800 800" fill="none" xmlns="http://www.w3.org/2000/svg">
  <g filter="url(#shadow)">
    <rect x="180" y="300" width="440" height="180" rx="90" fill="#F9FFB3" fill-opacity="0.95"/>
    <rect x="220" y="260" width="120" height="80" rx="32" fill="#FFFFFF" fill-opacity="0.86"/>
    <rect x="460" y="260" width="120" height="80" rx="32" fill="#FFFFFF" fill-opacity="0.86"/>
    <rect x="350" y="220" width="100" height="110" rx="28" fill="#FFFBE0" fill-opacity="0.9"/>
    <circle cx="260" cy="360" r="44" fill="#0F172A"/>
    <circle cx="540" cy="360" r="44" fill="#0F172A"/>
    <circle cx="260" cy="360" r="18" fill="#F8FAFC"/>
    <circle cx="540" cy="360" r="18" fill="#F8FAFC"/>
    <rect x="300" y="318" width="200" height="18" rx="9" fill="#E8FF1A"/>
    <rect x="322" y="280" width="156" height="20" rx="10" fill="#0F172A"/>
    <rect x="320" y="225" width="20" height="60" rx="10" fill="#0F172A"/>
    <rect x="460" y="225" width="20" height="60" rx="10" fill="#0F172A"/>
    <path d="M226 275H186L164 240" stroke="#E8FF1A" stroke-width="16" stroke-linecap="round"/>
    <path d="M574 275H614L636 240" stroke="#E8FF1A" stroke-width="16" stroke-linecap="round"/>
    <path d="M280 220L238 180" stroke="#0F172A" stroke-width="16" stroke-linecap="round"/>
    <path d="M520 220L562 180" stroke="#0F172A" stroke-width="16" stroke-linecap="round"/>
  </g>
  <defs>
    <filter id="shadow" x="120" y="140" width="560" height="280" filterUnits="userSpaceOnUse" color-interpolation-filters="sRGB">
      <feFlood flood-opacity="0" result="BackgroundImageFix"/>
      <feColorMatrix in="SourceAlpha" type="matrix" values="0 0 0 0 0 0 0 0 0 0 0 0 0 0 0 0 0 0 127 0" result="hardAlpha"/>
      <feOffset dy="16"/>
      <feGaussianBlur stdDeviation="20"/>
      <feColorMatrix type="matrix" values="0 0 0 0 0.09 0 0 0 0 0.13 0 0 0 0 0.2 0 0 0 0.28 0"/>
      <feBlend mode="normal" in2="BackgroundImageFix" result="effect1_dropShadow_0_1"/>
      <feBlend mode="normal" in="SourceGraphic" in2="effect1_dropShadow_0_1" result="shape"/>
    </filter>
  </defs>
</svg>
